<?xml version="1.0" standalone="no"?>
<!DOCTYPE svg PUBLIC "-//W3C//DTD SVG 20010904//EN"
 "http://www.w3.org/TR/2001/REC-SVG-20010904/DTD/svg10.dtd">
<svg version="1.0" xmlns="http://www.w3.org/2000/svg"
 width="310.000000pt" height="310.000000pt" viewBox="0 0 310.000000 310.000000"
 preserveAspectRatio="xMidYMid meet">
<metadata>
Created by potrace 1.14, written by Peter Selinger 2001-2017
</metadata>
<g transform="translate(0.000000,310.000000) scale(0.100000,-0.100000)"
fill="#000000" stroke="none">
<path d="M1298 2845 c-3 -6 -6 -109 -6 -230 0 -121 -1 -236 -1 -255 l-1 -35
-255 0 c-140 0 -256 -2 -256 -5 -1 -3 -2 -120 -3 -261 -1 -240 0 -257 16 -254
10 2 18 0 18 -6 0 -5 5 -9 11 -9 5 0 8 3 6 8 -3 4 10 7 29 7 19 0 34 -3 34 -7
0 -5 5 -8 11 -8 5 0 8 3 6 8 -3 4 10 7 29 7 19 0 34 -3 34 -7 0 -5 5 -8 11 -8
5 0 8 3 6 8 -3 4 10 7 29 7 19 0 34 -3 34 -7 0 -5 5 -8 11 -8 5 0 8 3 6 8 -3
4 10 7 29 7 19 0 34 -3 34 -7 0 -5 5 -8 11 -8 5 0 8 3 6 8 -3 4 10 7 29 7 19
0 34 -3 34 -7 0 -5 5 -8 11 -8 5 0 8 4 5 8 -6 11 25 9 43 -3 10 -6 12 -4 6 6
-6 11 -5 11 5 2 11 -10 16 -252 11 -486 l-1 -27 -110 2 c-61 2 -110 -1 -110
-5 0 -5 -5 -5 -12 -1 -16 10 -88 11 -88 2 0 -4 -10 -4 -22 0 -24 8 -80 7 -103
-1 -7 -3 -15 -3 -18 0 -11 10 -397 8 -397 -2 0 -7 -3 -7 -8 0 -9 13 -92 14
-92 1 0 -6 -5 -5 -11 1 -6 6 -17 10 -23 8 -46 -13 -47 -14 -35 -36 7 -13 7
-19 1 -15 -6 4 -10 -2 -9 -14 1 -11 5 -20 9 -20 5 0 4 -9 -2 -19 -7 -14 -7
-22 0 -26 6 -4 7 -12 3 -18 -11 -18 -12 -57 -2 -57 6 0 7 -5 3 -11 -10 -16
-11 -150 -1 -156 4 -2 4 -10 0 -16 -12 -19 -12 -57 0 -57 8 0 8 -3 0 -11 -13
-13 -2 -71 15 -77 6 -2 12 1 12 8 0 6 5 8 13 3 21 -13 49 -14 41 -1 -5 7 -3 8
6 3 18 -11 479 -12 473 -1 -4 5 0 6 6 1 18 -11 360 -12 354 -1 -4 5 0 6 8 1 7
-5 26 -8 42 -7 16 2 37 -3 46 -10 9 -7 13 -8 9 -4 -4 5 -3 15 3 23 6 7 8 13 4
13 -4 0 -2 7 5 15 10 12 10 15 0 15 -10 0 -10 3 0 15 10 12 10 15 0 15 -10 0
-10 3 0 15 7 8 8 15 3 15 -11 0 -11 29 1 48 4 7 2 12 -5 12 -8 0 -8 4 1 15 10
12 10 15 0 15 -10 0 -10 3 0 15 7 8 8 15 3 15 -11 0 -11 29 1 48 4 7 2 12 -5
12 -8 0 -8 4 1 15 10 12 10 15 0 15 -10 0 -10 3 0 15 7 8 8 15 3 15 -11 0 -11
29 0 47 4 6 2 15 -4 19 -8 4 -7 9 2 15 11 7 11 9 1 9 -9 0 -10 5 -2 19 7 14 6
21 -3 25 -9 5 -9 7 1 12 6 3 10 9 8 12 -2 4 9 8 25 8 16 1 27 -2 24 -6 -2 -3
2 -7 10 -7 8 0 12 3 10 7 -3 4 29 7 69 6 41 0 73 -4 71 -7 -2 -3 2 -6 10 -6 8
0 12 3 10 7 -3 4 29 7 69 6 41 0 73 -4 71 -7 -2 -3 2 -6 10 -6 8 0 12 4 9 9
-6 9 114 3 124 -6 3 -3 1 -6 -4 -6 -10 0 -9 -73 1 -90 3 -6 2 -10 -2 -10 -12
0 -10 -83 2 -92 7 -5 7 -8 0 -8 -11 0 -11 -222 0 -239 3 -6 3 -11 -2 -11 -4 0
-8 -11 -8 -25 0 -16 5 -23 13 -20 6 2 12 0 12 -4 0 -5 9 -7 20 -4 11 3 27 0
35 -7 13 -11 14 -10 9 5 -6 14 -4 16 6 10 20 -12 91 -14 83 -2 -4 6 -1 7 6 2
18 -11 280 -12 274 -1 -4 5 0 6 7 1 18 -11 479 -12 473 -1 -3 5 2 4 10 -1 9
-4 35 -7 58 -5 34 4 40 7 36 23 -3 10 0 20 7 23 8 3 7 5 -1 5 -9 1 -10 8 -3
25 6 17 5 26 -3 30 -9 3 -9 5 1 5 9 1 10 6 2 20 -7 14 -6 21 3 24 7 3 7 6 1 6
-7 1 -9 16 -4 46 4 25 3 48 -2 51 -4 3 -3 14 2 25 8 14 7 19 -2 19 -9 0 -9 3
2 10 11 7 11 10 2 10 -9 0 -10 5 -3 19 6 10 7 21 4 25 -8 7 -7 115 1 123 3 3
-1 12 -9 20 -18 17 -175 24 -175 8 0 -7 -3 -7 -8 0 -8 12 -92 14 -92 3 0 -4
-10 -4 -22 0 -24 8 -80 7 -103 -1 -7 -3 -15 -3 -18 0 -10 10 -237 8 -237 -2 0
-7 -3 -7 -8 0 -8 12 -92 14 -92 3 0 -4 -7 -5 -15 -2 -23 9 -115 10 -115 1 0
-5 -5 -5 -11 -1 -6 4 -43 6 -82 6 -39 0 -65 3 -59 7 6 4 10 17 7 30 -2 13 0
33 6 43 6 11 7 18 2 15 -5 -4 -10 9 -10 28 0 19 4 35 9 35 4 0 8 5 8 11 0 5
-5 7 -10 4 -7 -4 -9 3 -6 21 3 15 0 35 -7 43 -9 12 -9 13 1 7 9 -6 11 6 7 54
-4 48 -3 60 7 54 10 -6 10 -4 2 7 -5 8 -9 34 -9 59 1 25 -3 51 -9 59 -8 11 -8
13 2 7 8 -4 12 -1 12 9 0 11 5 15 14 12 8 -3 17 -3 20 0 11 11 56 12 56 1 0
-6 6 -5 16 3 9 7 18 9 22 3 8 -11 32 -11 50 -1 7 5 12 3 12 -3 0 -8 6 -8 20 0
15 8 20 8 20 -1 0 -8 4 -8 15 1 11 9 15 9 15 1 0 -7 5 -9 12 -5 20 12 58 14
58 2 0 -6 6 -5 16 3 9 7 18 9 22 3 8 -11 32 -11 50 -1 7 5 12 3 12 -3 0 -8 6
-8 20 0 15 8 20 8 20 -1 0 -8 4 -9 13 0 8 6 17 8 20 4 8 -8 10 13 9 130 -1 66
2 86 11 80 9 -5 9 -3 1 8 -8 9 -12 63 -11 159 l1 145 -261 0 c-144 1 -261 -2
-261 -5 0 -3 0 -9 -1 -15 -6 -28 -2 -185 3 -194 4 -6 4 -11 -1 -11 -10 0 -8
-253 2 -270 4 -6 4 -14 1 -17 -3 -4 -6 0 -6 8 0 12 -2 12 -9 0 -7 -11 -55 -13
-247 -13 -132 0 -244 1 -251 1 -12 1 -12 18 0 39 5 7 3 12 -4 12 -8 0 -8 4 1
15 10 12 10 15 0 15 -10 0 -10 3 0 15 7 8 8 15 3 15 -11 0 -11 29 1 48 4 7 2
12 -5 12 -8 0 -8 4 1 15 10 12 10 15 0 15 -10 0 -10 3 0 15 7 8 8 15 3 15 -11
0 -11 29 1 48 4 7 2 12 -5 12 -8 0 -8 4 1 15 10 12 10 15 0 15 -10 0 -10 3 0
15 7 8 8 15 3 15 -11 0 -11 30 1 49 5 8 3 16 -5 21 -10 7 -10 12 0 23 9 12 9
16 0 19 -9 3 -9 9 0 27 7 12 15 20 18 17 4 -3 12 -1 20 5 7 6 13 7 13 2 0 -5
13 -10 30 -10 18 0 27 4 23 11 -4 6 0 5 8 -1 12 -10 18 -10 27 -1 9 9 12 9 12
0 0 -13 26 -12 48 1 6 5 12 4 12 0 0 -5 9 -9 20 -10 11 -1 18 2 16 6 -6 10 25
8 42 -3 7 -4 12 -2 12 6 0 10 2 10 8 1 8 -13 29 -13 50 0 6 5 12 4 12 -1 0
-10 70 -9 87 1 7 4 15 2 18 -3 5 -8 13 -6 25 5 15 13 18 28 15 71 -2 30 0 52
4 49 4 -2 8 2 8 10 0 8 -4 12 -8 10 -4 -3 -6 16 -4 43 1 26 -2 53 -9 61 -7 10
-8 13 0 8 8 -4 11 15 9 66 -1 40 3 78 9 86 8 11 8 13 0 8 -8 -5 -11 8 -9 40 4
57 -3 77 -20 63 -6 -5 -15 -7 -19 -3 -11 11 -50 9 -58 -2 -5 -7 -8 -7 -8 0 0
11 -71 12 -89 1 -6 -4 -11 -3 -11 3 0 10 -39 9 -57 -2 -6 -4 -14 -4 -16 0 -6
9 -140 8 -155 -1 -6 -3 -12 -1 -14 5 -2 7 -12 7 -30 0 -19 -7 -28 -7 -31 2 -2
6 -6 7 -9 2z"/>
</g>
</svg>
